<svg width="22" height="22" viewBox="0 0 22 22" fill="none" xmlns="http://www.w3.org/2000/svg">
<path d="M10.9502 7.08789V11.0879L12.9502 13.0879" stroke="black" stroke-opacity="0.9" stroke-width="3" stroke-linecap="round" stroke-linejoin="round"/>
<path d="M2 10.088C2.22409 7.88802 3.25026 5.84757 4.88273 4.35593C6.5152 2.86428 8.63969 2.02584 10.8509 2.00059C13.0621 1.97533 15.2052 2.76502 16.8713 4.21899C18.5374 5.67296 19.6099 7.68944 19.8842 9.88369C20.1585 12.0779 19.6153 14.2964 18.3584 16.1157C17.1014 17.9351 15.2186 19.228 13.0693 19.7478C10.9199 20.2676 8.65441 19.9779 6.705 18.934C4.75558 17.8901 3.25872 16.1651 2.5 14.088M2 19.088V14.088H7" stroke="black" stroke-opacity="0.9" stroke-width="3" stroke-linecap="round" stroke-linejoin="round"/>
</svg>
