<svg width="11" height="14" viewBox="0 0 11 14" fill="none" xmlns="http://www.w3.org/2000/svg">
<path d="M5.99992 8.25V6C5.99992 5.80109 5.92091 5.61032 5.78025 5.46967C5.6396 5.32902 5.44884 5.25 5.24992 5.25C5.05101 5.25 4.86025 5.32902 4.71959 5.46967C4.57894 5.61032 4.49992 5.80109 4.49992 6V9C4.49992 9.19891 4.57894 9.38968 4.71959 9.53033C4.86025 9.67098 5.05101 9.75 5.24992 9.75H7.49992C7.69884 9.75 7.8896 9.67098 8.03025 9.53033C8.17091 9.38968 8.24992 9.19891 8.24992 9C8.24992 8.80109 8.17091 8.61032 8.03025 8.46967C7.8896 8.32902 7.69884 8.25 7.49992 8.25H5.99992ZM5.24992 13.5C4.05645 13.5 2.91186 13.0259 2.06794 12.182C1.22403 11.3381 0.749924 10.1935 0.749924 9C0.749924 7.80653 1.22403 6.66193 2.06794 5.81802C2.91186 4.97411 4.05645 4.5 5.24992 4.5C6.4434 4.5 7.58799 4.97411 8.4319 5.81802C9.27582 6.66193 9.74992 7.80653 9.74992 9C9.74992 10.1935 9.27582 11.3381 8.4319 12.182C7.58799 13.0259 6.4434 13.5 5.24992 13.5ZM7.44592 3.41475C6.74646 3.13985 6.00147 2.99915 5.24992 3C4.49838 2.99915 3.75339 3.13985 3.05392 3.41475C2.72592 3.18683 2.47927 2.86011 2.34992 2.48222C2.22057 2.10432 2.21527 1.69499 2.33481 1.31388C2.45434 0.932763 2.69245 0.599778 3.01445 0.363443C3.33645 0.127109 3.7255 -0.000223279 4.12492 2.93912e-07H6.37492C6.77434 -0.000223279 7.1634 0.127109 7.4854 0.363443C7.8074 0.599778 8.04551 0.932763 8.16504 1.31388C8.28458 1.69499 8.27928 2.10432 8.14993 2.48222C8.02058 2.86011 7.77393 3.18683 7.44592 3.41475ZM4.12492 1.5C4.02547 1.5 3.93009 1.53951 3.85976 1.60984C3.78943 1.68016 3.74992 1.77554 3.74992 1.875C3.74992 1.97446 3.78943 2.06984 3.85976 2.14017C3.93009 2.21049 4.02547 2.25 4.12492 2.25H6.37492C6.47438 2.25 6.56976 2.21049 6.64009 2.14017C6.71042 2.06984 6.74992 1.97446 6.74992 1.875C6.74992 1.77554 6.71042 1.68016 6.64009 1.60984C6.56976 1.53951 6.47438 1.5 6.37492 1.5H4.12492ZM8.29042 3.82575C8.3407 3.64366 8.43602 3.47717 8.56758 3.34162C8.69915 3.20607 8.86273 3.10584 9.04323 3.05015C9.22374 2.99447 9.41536 2.98514 9.60042 3.02302C9.78548 3.06089 9.95803 3.14476 10.1021 3.26688C10.2463 3.389 10.3573 3.54544 10.425 3.72178C10.4928 3.89812 10.515 4.08867 10.4897 4.27587C10.4644 4.46306 10.3924 4.64087 10.2803 4.7929C10.1681 4.94493 10.0195 5.06627 9.84818 5.14575C9.40775 4.62039 8.88094 4.17399 8.29042 3.82575ZM0.651674 5.14575C0.480308 5.06627 0.331713 4.94493 0.219594 4.7929C0.107476 4.64087 0.0354426 4.46306 0.0101391 4.27587C-0.0151644 4.08867 0.00707614 3.89812 0.0748096 3.72178C0.142543 3.54544 0.253588 3.389 0.397704 3.26688C0.54182 3.14476 0.714366 3.06089 0.899429 3.02302C1.08449 2.98514 1.27611 2.99447 1.45662 3.05015C1.63712 3.10584 1.8007 3.20607 1.93227 3.34162C2.06383 3.47717 2.15915 3.64366 2.20942 3.82575C1.61917 4.17406 1.09188 4.62045 0.651674 5.14575Z" fill="#545454"/>
</svg>
