<svg width="15" height="14" viewBox="0 0 15 14" fill="none" xmlns="http://www.w3.org/2000/svg">
<g clip-path="url(#clip0_758_457)">
<path d="M14.0714 0.283522C14.0308 0.182381 13.9527 0.10079 13.8535 0.0557227C13.7543 0.0106559 13.6415 0.00558328 13.5386 0.0415602C13.4357 0.0775371 13.3507 0.151793 13.3011 0.248881C13.2516 0.345969 13.2414 0.458414 13.2727 0.562822C13.923 2.43182 12.6322 3.82762 11.648 4.57522L11.2504 4.00542C11.1167 3.81432 10.8178 3.65542 10.5854 3.65262L8.35379 3.66242C8.08118 3.67066 7.81586 3.7524 7.58589 3.89902L1.01009 8.50992C0.857136 8.61756 0.753063 8.78141 0.720657 8.96561C0.688251 9.14981 0.730154 9.33935 0.837189 9.49272L3.82549 13.7683C4.04949 14.0868 4.40719 14.0483 4.72639 13.8257L11.3022 9.21412C11.4912 9.08042 11.7096 8.79202 11.7866 8.57152L12.4852 6.37002C12.5622 6.15022 12.5153 5.81492 12.3816 5.62382L12.1394 5.27662C13.461 4.26372 14.833 2.47382 14.0714 0.283522ZM11.0117 6.83412C10.8905 6.91892 10.7539 6.97902 10.6095 7.01098C10.4651 7.04294 10.3159 7.04615 10.1703 7.0204C10.0246 6.99466 9.88553 6.94048 9.76086 6.86095C9.63619 6.78143 9.52842 6.67812 9.44369 6.55692C9.27214 6.31168 9.2049 6.00839 9.25674 5.71363C9.30858 5.41887 9.47526 5.15672 9.72019 4.98472C9.9122 4.85019 10.1415 4.77902 10.3759 4.78116C10.6103 4.78329 10.8383 4.85862 11.0278 4.99662C10.8374 5.11142 10.7065 5.17862 10.682 5.18912C10.5952 5.2305 10.5251 5.30012 10.483 5.38657C10.441 5.47303 10.4296 5.5712 10.4507 5.665C10.4717 5.75879 10.524 5.84265 10.599 5.90283C10.674 5.963 10.7672 5.99593 10.8633 5.99622C10.9235 5.99622 10.9851 5.98222 11.0432 5.95492C11.179 5.89052 11.3246 5.81422 11.4765 5.72392C11.5114 5.93397 11.4863 6.14961 11.4041 6.34602C11.3219 6.54243 11.1859 6.71162 11.0117 6.83412Z" fill="#545454"/>
</g>
<defs>
<clipPath id="clip0_758_457">
<rect width="14" height="14" fill="white" transform="translate(0.5)"/>
</clipPath>
</defs>
</svg>
