<svg width="224" height="45" viewBox="0 0 224 45" fill="none" xmlns="http://www.w3.org/2000/svg">
<path d="M6.222 22.2078C6.222 16.8132 9.1524 14.238 15.99 14.238C22.206 14.238 25.4472 16.4136 25.6914 21.3198H19.7862C19.5642 19.8546 18.432 19.122 15.99 19.122C12.5712 19.122 11.994 20.565 11.994 22.2078C11.994 23.8728 12.5934 25.338 15.99 25.338C18.432 25.338 19.5642 24.5832 19.7862 23.0958H25.6914C25.4472 28.0242 22.2282 30.222 15.99 30.222C9.1524 30.222 6.222 27.6246 6.222 22.2078ZM100.191 21.8568C100.191 16.2192 103.254 13.528 110.399 13.528C116.895 13.528 120.282 15.8016 120.538 20.9288H114.366C114.134 19.3976 112.951 18.632 110.399 18.632C106.826 18.632 106.223 20.14 106.223 21.8568C106.223 23.5968 106.85 25.128 110.399 25.128C112.951 25.128 114.134 24.3392 114.366 22.7848H120.538C120.282 27.9352 116.918 30.232 110.399 30.232C103.254 30.232 100.191 27.5176 100.191 21.8568Z" fill="white"/>
<path d="M26.7492 14.64H30.0324V17.5008H26.7492V14.64ZM26.7492 18.6912H30.0324V30H26.7492V18.6912ZM42.8049 21.4368H37.4481V24.7008C37.4481 26.8896 37.8705 27.4464 39.8673 27.4464C40.9041 27.4464 41.4801 27.4464 42.8049 27.2544V29.904C41.7105 30.096 40.4625 30.192 38.9457 30.192C36.0273 30.192 34.1457 29.0976 34.1457 26.6016V21.4368H31.1697V18.6912H34.1457V16.3488L37.4481 15.408V18.6912H42.8049V21.4368ZM44.1492 14.64H47.4324V17.5008H44.1492V14.64ZM44.1492 18.6912H47.4324V30H44.1492V18.6912ZM62.1053 18.6912V21.4368L53.6381 27.2544H62.1053V30H48.7805V27.2544L57.2477 21.4368H48.7805V18.6912H62.1053ZM70.5738 27.5232C72.8394 27.5232 74.2218 27.1008 75.0474 25.9488H78.3114C77.5626 28.8288 74.7594 30.192 70.5738 30.192C66.273 30.192 62.9322 28.5024 62.9322 24.3552C62.9322 20.1888 66.177 18.4992 70.7658 18.4992C75.0666 18.4992 78.5034 19.9776 78.5034 25.1232H66.2922C66.657 26.928 68.385 27.5232 70.5738 27.5232ZM70.7466 20.9952C68.5002 20.9952 66.9258 21.4368 66.4074 23.0304H74.9898C74.433 21.4368 72.8202 20.9952 70.7466 20.9952ZM89.6243 18.4992C92.6387 18.4992 95.4611 19.5744 95.4995 23.7408L95.4611 30H92.1587V24.9888C92.1587 22.5888 91.3523 21.3408 88.6451 21.3408C86.4371 21.3408 84.0563 22.4736 83.0387 23.664V30H79.7555V18.6912H83.0387V20.6688C84.6515 19.4016 86.8787 18.4992 89.6243 18.4992ZM129.247 30.192C124.563 30.192 121.414 28.5024 121.414 24.3552C121.414 20.1888 124.563 18.4992 129.247 18.4992C133.913 18.4992 137.081 20.1888 137.081 24.3552C137.081 28.5024 133.913 30.192 129.247 30.192ZM129.247 27.4464C132.281 27.4464 133.779 26.6976 133.779 24.3552C133.779 21.9936 132.281 21.2448 129.247 21.2448C126.195 21.2448 124.697 21.9936 124.697 24.3552C124.697 26.6976 126.195 27.4464 129.247 27.4464ZM148.2 18.4992C151.214 18.4992 154.036 19.5744 154.075 23.7408L154.036 30H150.734V24.9888C150.734 22.5888 149.928 21.3408 147.22 21.3408C145.012 21.3408 142.632 22.4736 141.614 23.664V30H138.331V18.6912H141.614V20.6688C143.227 19.4016 145.454 18.4992 148.2 18.4992ZM165.468 18.4992C168.483 18.4992 171.305 19.5744 171.344 23.7408L171.305 30H168.003V24.9888C168.003 22.5888 167.196 21.3408 164.489 21.3408C162.281 21.3408 159.9 22.4736 158.883 23.664V30H155.6V18.6912H158.883V20.6688C160.496 19.4016 162.723 18.4992 165.468 18.4992ZM180.13 27.5232C182.396 27.5232 183.778 27.1008 184.604 25.9488H187.868C187.119 28.8288 184.316 30.192 180.13 30.192C175.83 30.192 172.489 28.5024 172.489 24.3552C172.489 20.1888 175.734 18.4992 180.322 18.4992C184.623 18.4992 188.06 19.9776 188.06 25.1232H175.849C176.214 26.928 177.942 27.5232 180.13 27.5232ZM180.303 20.9952C178.057 20.9952 176.482 21.4368 175.964 23.0304H184.546C183.99 21.4368 182.377 20.9952 180.303 20.9952ZM189.008 24.3552C189.008 20.1888 192.156 18.4992 196.841 18.4992C201.065 18.4992 204.041 19.8816 204.579 23.2032H201.219C200.777 21.744 199.222 21.2448 196.841 21.2448C194.019 21.2448 192.291 21.9936 192.291 24.3552C192.291 26.6976 194.019 27.4464 196.841 27.4464C199.222 27.4464 200.777 26.9472 201.219 25.488H204.579C204.041 28.8096 201.065 30.192 196.841 30.192C192.156 30.192 189.008 28.5024 189.008 24.3552ZM216.449 21.4368H211.092V24.7008C211.092 26.8896 211.515 27.4464 213.511 27.4464C214.548 27.4464 215.124 27.4464 216.449 27.2544V29.904C215.355 30.096 214.107 30.192 212.59 30.192C209.671 30.192 207.79 29.0976 207.79 26.6016V21.4368H204.814V18.6912H207.79V16.3488L211.092 15.408V18.6912H216.449V21.4368Z" fill="white" fill-opacity="0.5"/>
</svg>
