<svg width="20" height="20" viewBox="0 0 20 18" fill="none" xmlns="http://www.w3.org/2000/svg">
<path d="M18 4.49978H5.86031L15.9656 1.46884C16.1562 1.41165 16.3163 1.2811 16.4106 1.1059C16.5049 0.930701 16.5258 0.725206 16.4686 0.534624C16.4114 0.344041 16.2809 0.183981 16.1057 0.0896562C15.9305 -0.00466873 15.725 -0.0255324 15.5344 0.0316549L0.534375 4.53165C0.379944 4.57801 0.244564 4.6729 0.148308 4.80226C0.0520516 4.93161 4.52515e-05 5.08854 0 5.24978V16.4998C0 16.8976 0.158035 17.2791 0.43934 17.5604C0.720644 17.8417 1.10218 17.9998 1.5 17.9998H18C18.3978 17.9998 18.7794 17.8417 19.0607 17.5604C19.342 17.2791 19.5 16.8976 19.5 16.4998V5.99978C19.5 5.60195 19.342 5.22042 19.0607 4.93912C18.7794 4.65781 18.3978 4.49978 18 4.49978ZM7.5 14.9998H3.75C3.55109 14.9998 3.36032 14.9208 3.21967 14.7801C3.07902 14.6395 3 14.4487 3 14.2498C3 14.0509 3.07902 13.8601 3.21967 13.7194C3.36032 13.5788 3.55109 13.4998 3.75 13.4998H7.5C7.69891 13.4998 7.88968 13.5788 8.03033 13.7194C8.17098 13.8601 8.25 14.0509 8.25 14.2498C8.25 14.4487 8.17098 14.6395 8.03033 14.7801C7.88968 14.9208 7.69891 14.9998 7.5 14.9998ZM7.5 11.9998H3.75C3.55109 11.9998 3.36032 11.9208 3.21967 11.7801C3.07902 11.6395 3 11.4487 3 11.2498C3 11.0509 3.07902 10.8601 3.21967 10.7194C3.36032 10.5788 3.55109 10.4998 3.75 10.4998H7.5C7.69891 10.4998 7.88968 10.5788 8.03033 10.7194C8.17098 10.8601 8.25 11.0509 8.25 11.2498C8.25 11.4487 8.17098 11.6395 8.03033 11.7801C7.88968 11.9208 7.69891 11.9998 7.5 11.9998ZM7.5 8.99978H3.75C3.55109 8.99978 3.36032 8.92076 3.21967 8.78011C3.07902 8.63946 3 8.44869 3 8.24978C3 8.05087 3.07902 7.8601 3.21967 7.71945C3.36032 7.5788 3.55109 7.49978 3.75 7.49978H7.5C7.69891 7.49978 7.88968 7.5788 8.03033 7.71945C8.17098 7.8601 8.25 8.05087 8.25 8.24978C8.25 8.44869 8.17098 8.63946 8.03033 8.78011C7.88968 8.92076 7.69891 8.99978 7.5 8.99978ZM13.5 14.2498C12.9067 14.2498 12.3266 14.0738 11.8333 13.7442C11.3399 13.4145 10.9554 12.946 10.7284 12.3978C10.5013 11.8497 10.4419 11.2465 10.5576 10.6645C10.6734 10.0826 10.9591 9.54802 11.3787 9.12846C11.7982 8.7089 12.3328 8.42318 12.9147 8.30742C13.4967 8.19167 14.0999 8.25108 14.6481 8.47814C15.1962 8.7052 15.6648 9.08972 15.9944 9.58307C16.3241 10.0764 16.5 10.6564 16.5 11.2498C16.5 12.0454 16.1839 12.8085 15.6213 13.3711C15.0587 13.9337 14.2956 14.2498 13.5 14.2498Z" fill="black" fill-opacity="0.9"/>
</svg>
