<svg width="25" height="15" viewBox="0 0 25 15" fill="none" xmlns="http://www.w3.org/2000/svg">
<path d="M12.6331 0.828204L8.85144 3.891C8.22247 4.39886 8.10137 5.31301 8.57797 5.96542C9.08193 6.6608 10.0625 6.79753 10.7383 6.27013L14.6176 3.25422C14.8911 3.04326 15.2817 3.09014 15.4966 3.3636C15.7115 3.63707 15.6607 4.02773 15.3872 4.2426L14.5707 4.87547L20.0009 9.87595V2.50024H19.9736L19.8212 2.40257L16.985 0.585994C16.3873 0.203145 15.688 0 14.977 0C14.1254 0 13.2972 0.292997 12.6331 0.828204ZM13.5238 5.68805L11.504 7.25851C10.2735 8.21954 8.48812 7.96952 7.56616 6.70377C6.69889 5.51225 6.91766 3.84803 8.0623 2.92216L11.3126 0.292997C10.8594 0.101572 10.3711 0.00390657 9.87497 0.00390657C9.14053 -5.96686e-08 8.42562 0.218771 7.81228 0.62506L4.99951 2.50024V11.2511H6.10117L9.67183 14.5092C10.4375 15.2085 11.6212 15.1538 12.3205 14.3881C12.5354 14.1498 12.6799 13.8724 12.7542 13.5833L13.4183 14.1928C14.1801 14.8921 15.3677 14.8413 16.067 14.0795C16.2428 13.8881 16.3717 13.6654 16.4537 13.4349C17.2116 13.9427 18.243 13.8373 18.8797 13.1419C19.579 12.3801 19.5282 11.1925 18.7665 10.4932L13.5238 5.68805ZM0.624084 2.50024C0.280301 2.50024 -0.000976562 2.78152 -0.000976562 3.1253V11.2511C-0.000976562 11.9426 0.557671 12.5012 1.24914 12.5012H2.49926C3.19074 12.5012 3.74938 11.9426 3.74938 11.2511V2.50024H0.624084ZM1.8742 10.001C2.03998 10.001 2.19897 10.0668 2.31619 10.184C2.43341 10.3013 2.49926 10.4602 2.49926 10.626C2.49926 10.7918 2.43341 10.9508 2.31619 11.068C2.19897 11.1852 2.03998 11.2511 1.8742 11.2511C1.70843 11.2511 1.54944 11.1852 1.43222 11.068C1.315 10.9508 1.24914 10.7918 1.24914 10.626C1.24914 10.4602 1.315 10.3013 1.43222 10.184C1.54944 10.0668 1.70843 10.001 1.8742 10.001ZM21.2511 2.50024V11.2511C21.2511 11.9426 21.8097 12.5012 22.5012 12.5012H23.7513C24.4428 12.5012 25.0014 11.9426 25.0014 11.2511V3.1253C25.0014 2.78152 24.7202 2.50024 24.3764 2.50024H21.2511ZM22.5012 10.626C22.5012 10.4602 22.567 10.3013 22.6843 10.184C22.8015 10.0668 22.9605 10.001 23.1263 10.001C23.292 10.001 23.451 10.0668 23.5682 10.184C23.6855 10.3013 23.7513 10.4602 23.7513 10.626C23.7513 10.7918 23.6855 10.9508 23.5682 11.068C23.451 11.1852 23.292 11.2511 23.1263 11.2511C22.9605 11.2511 22.8015 11.1852 22.6843 11.068C22.567 10.9508 22.5012 10.7918 22.5012 10.626Z" fill="black"/>
</svg>
